<svg width="23" height="14" viewBox="0 0 23 14" fill="none" xmlns="http://www.w3.org/2000/svg">
<g clip-path="url(#clip0_1_621)">
<path fill-rule="evenodd" clip-rule="evenodd" d="M20.2187 1.89548H14.7344V0.571289H20.2191V1.89548H20.2187ZM11.0841 7.32588C11.438 7.85865 11.6148 8.50556 11.6148 9.26505C11.6148 10.0505 11.4155 10.755 11.0098 11.3774C10.7518 11.7893 10.4314 12.1371 10.0464 12.4172C9.61288 12.7411 9.09958 12.9632 8.50949 13.0819C7.91751 13.2007 7.27679 13.2608 6.5866 13.2608H0.453125V0.0224609H7.03034C8.6882 0.0486674 9.86355 0.51556 10.5576 1.43249C10.9741 1.99489 11.1804 2.66968 11.1804 3.45404C11.1804 4.26338 10.9716 4.911 10.551 5.40301C10.3171 5.67888 9.97154 5.92981 9.51406 6.15633C10.207 6.40291 10.7328 6.7912 11.0841 7.32588ZM3.59375 5.2417H6.47561C7.06784 5.2417 7.54659 5.13228 7.91532 4.91354C8.2838 4.69517 8.46766 4.30697 8.46766 3.74959C8.46766 3.13379 8.22421 2.72507 7.73615 2.52835C7.31663 2.39168 6.77987 2.32129 6.12856 2.32129H3.59375V5.2417ZM8.74515 9.07516C8.74515 8.3875 8.456 7.91209 7.87889 7.65701C7.55616 7.51204 7.10082 7.43793 6.51698 7.43262H3.59375V10.9606H6.47175C7.06301 10.9606 7.52064 10.8853 7.8509 10.7284C8.44649 10.4398 8.74515 9.89059 8.74515 9.07516ZM22.2601 6.92241C22.3263 7.35552 22.3563 7.98392 22.3441 8.80528H15.2413C15.2805 9.75828 15.619 10.4247 16.2609 10.8061C16.648 11.0453 17.1173 11.1621 17.6669 11.1621C18.2464 11.1621 18.7187 11.0197 19.0823 10.7269C19.2804 10.5717 19.4552 10.3527 19.6063 10.0764H22.2097C22.1415 10.6392 21.828 11.2101 21.2647 11.7902C20.3919 12.7123 19.1679 13.1746 17.5959 13.1746C16.2972 13.1746 15.1527 12.7847 14.1593 12.0077C13.1691 11.2279 12.6719 9.96327 12.6719 8.209C12.6719 6.56394 13.1183 5.3048 14.0142 4.42837C14.9134 3.55031 16.0738 3.11328 17.5042 3.11328C18.352 3.11328 19.1163 3.26061 19.7982 3.55675C20.4779 3.8532 21.0396 4.31974 21.482 4.96098C21.8824 5.52567 22.1399 6.17859 22.2601 6.92241ZM19.692 7.16923C19.6443 6.51027 19.4179 6.01149 19.0103 5.67063C18.6061 5.32883 18.1012 5.15723 17.4987 5.15723C16.8429 5.15723 16.3366 5.34066 15.9768 5.70115C15.6146 6.06093 15.3892 6.55002 15.2969 7.16928H19.692V7.16923Z" fill="#767676"/>
</g>
<defs>
<clipPath id="clip0_1_621">
<rect width="21.8879" height="13.2383" fill="white" transform="translate(0.453125 0.0224609)"/>
</clipPath>
</defs>
</svg>
