<svg width="102" height="104" viewBox="0 0 102 104" fill="none" xmlns="http://www.w3.org/2000/svg">
<path fill-rule="evenodd" clip-rule="evenodd" d="M44.9328 30.7526C44.8022 29.632 44.7171 28.5263 44.6819 27.4231C44.6285 25.7682 44.798 24.1121 44.8333 22.4618C44.8477 21.7616 44.8569 19.9347 44.9039 19.6743C45.3261 17.4053 47.1878 17.1497 47.7303 17.1147C47.9931 17.0906 50.6874 16.9276 51.114 19.9281C51.638 23.5971 51.6789 27.2663 51.2455 30.8364C51.6758 33.9123 52.5225 36.9968 53.7046 39.8106C58.4088 51.0019 68.3792 52.5737 79.2452 53.0272C80.9168 53.0873 82.237 54.4687 82.2398 56.1335C82.242 57.8108 80.9249 59.1956 79.2544 59.2607C73.1536 59.5381 62.1345 63.8582 58.1524 68.7369C57.3193 69.7583 56.7358 72.2945 56.0087 74.7732C54.9949 78.2136 53.8244 81.6084 52.6358 82.9997C52.4571 83.2159 50.3064 85.4094 49.6826 85.7155C48.1838 86.4402 47.0401 85.9187 46.3988 85.4605C45.7576 85.0023 45.0499 84.1277 44.8209 82.7267C44.5813 81.2626 44.9973 78.3049 44.981 77.6657C44.9214 75.3472 44.6904 70.7921 43.9463 66.8491C43.5451 64.726 43.1018 62.7634 42.2545 61.7565C39.1175 58.0295 33.7852 58.2836 29.2873 58.6427C28.7711 58.679 28.2542 58.7278 27.7392 58.7642C25.8929 59.2083 23.9413 59.5093 21.8881 59.6425C18.7874 59.8476 18.4249 56.9879 18.407 56.7992C18.3706 56.3844 18.2652 54.2513 20.6317 53.5207C20.8896 53.4463 22.7806 53.1295 23.5092 53.0039C24.5244 52.8304 25.5482 52.7073 26.5751 52.5969C37.2644 49.8622 43.4475 40.9652 44.9328 30.7526ZM47.9663 42.2844C51.5202 50.7012 57.3463 54.9781 64.4005 57.1398L64.3993 57.1397C59.8186 59.2469 55.6113 61.9614 53.3109 64.7855C52.4378 65.855 51.575 68.0514 50.7718 70.5262C50.5249 68.1731 50.1572 65.6636 49.6124 63.508C48.993 61.0483 48.0954 58.9876 47.0404 57.7323C45.0033 55.3131 42.3648 53.8895 39.4898 53.1047C43.1273 50.1985 45.9623 46.4879 47.9663 42.2844Z" fill="#F4C44C"/>
</svg>
