<svg width="22" height="22" viewBox="0 0 22 22" fill="none" xmlns="http://www.w3.org/2000/svg">
<circle cx="10.8824" cy="11.2469" r="10.734" fill="white"/>
<path d="M16.2909 7.20873C16.2107 7.12783 16.1152 7.06361 16.01 7.01979C15.9048 6.97596 15.792 6.9534 15.6781 6.9534C15.5641 6.9534 15.4513 6.97596 15.3461 7.01979C15.2409 7.06361 15.1454 7.12783 15.0652 7.20873L8.63432 13.6482L5.9325 10.9378C5.84918 10.8573 5.75083 10.794 5.64305 10.7515C5.53528 10.7091 5.42019 10.6882 5.30437 10.6902C5.18854 10.6922 5.07425 10.717 4.968 10.7632C4.86176 10.8094 4.76566 10.876 4.68517 10.9593C4.60469 11.0427 4.5414 11.141 4.49893 11.2488C4.45646 11.3566 4.43563 11.4717 4.43763 11.5875C4.43964 11.7033 4.46443 11.8176 4.51061 11.9238C4.55679 12.0301 4.62343 12.1262 4.70675 12.2067L8.02145 15.5214C8.1017 15.6023 8.19717 15.6665 8.30236 15.7103C8.40755 15.7541 8.52037 15.7767 8.63432 15.7767C8.74828 15.7767 8.8611 15.7541 8.96629 15.7103C9.07148 15.6665 9.16695 15.6023 9.2472 15.5214L16.2909 8.47764C16.3785 8.39681 16.4485 8.2987 16.4963 8.18951C16.5441 8.08032 16.5688 7.9624 16.5688 7.84319C16.5688 7.72398 16.5441 7.60606 16.4963 7.49687C16.4485 7.38767 16.3785 7.28957 16.2909 7.20873Z" fill="#055F5B"/>
</svg>
