<svg width="22" height="18" viewBox="0 0 22 18" fill="none" xmlns="http://www.w3.org/2000/svg">
<path fill-rule="evenodd" clip-rule="evenodd" d="M9.5169 0C10.7443 0.0426114 12.0155 0.0426114 13.2429 0.0852163C14.3387 0.127825 15.3469 0.298263 16.3113 0.852182C17.5387 1.57654 18.2839 2.64177 18.5469 4.00526C18.6784 4.81483 18.7222 5.66702 18.766 6.47659C18.8099 8.26618 18.766 10.0558 18.766 11.8453C18.766 12.7827 18.7222 13.7201 18.4154 14.6149C17.8017 16.3619 16.5305 17.4271 14.6894 17.768C13.8565 17.9385 12.9798 17.9385 12.147 17.9811C10.3059 18.0237 8.5087 17.9811 6.66763 17.9811C5.70327 17.9811 4.7389 17.9385 3.81837 17.6402C2.02114 17.0437 0.925272 15.808 0.574593 14.0184C0.399253 13.2088 0.399253 12.3567 0.355421 11.5471C0.311584 9.75749 0.355421 7.96791 0.355421 6.17833C0.355421 5.24093 0.399254 4.30353 0.706096 3.40873C1.31979 1.66175 2.591 0.596531 4.43205 0.255655C5.26493 0.0852228 6.14162 0.0852228 6.97448 0.0426114C7.80734 0 8.6402 0 9.5169 0ZM17.1043 8.81982C17.0605 8.81982 17.1043 8.81982 17.1043 8.81982C17.0605 8.09546 17.0605 7.41372 17.0605 6.68936C17.0605 6.00762 17.0167 5.32587 16.929 4.64412C16.7537 3.11019 15.8331 2.08757 14.2989 1.78931C13.5099 1.61887 12.6332 1.61887 11.8442 1.61887C10.2661 1.57626 8.7319 1.57626 7.15385 1.61887C6.36482 1.61887 5.57579 1.66148 4.8306 1.78931C3.51555 2.00235 2.59502 2.72671 2.20051 4.00498C2.069 4.43107 2.02517 4.85717 1.98133 5.28326C1.9375 6.9024 1.9375 8.52155 1.9375 10.1407C1.9375 11.1633 1.98133 12.2286 2.069 13.2512C2.20051 14.7851 3.16487 15.8503 4.74293 16.106C5.53195 16.2338 6.36482 16.2764 7.19768 16.2764C8.7319 16.319 10.2661 16.2764 11.8442 16.2764C12.5455 16.2764 13.2469 16.2338 13.9482 16.1486C14.6058 16.106 15.2194 15.8929 15.7455 15.4668C16.6222 14.7851 16.929 13.8903 16.9728 12.8677C17.0605 11.5894 17.0605 10.2259 17.1043 8.81982Z" fill="#1E1E1E"/>
<path fill-rule="evenodd" clip-rule="evenodd" d="M14.2496 8.9914C14.2496 11.5479 12.1455 13.5932 9.51542 13.5932C6.88532 13.5932 4.78125 11.5479 4.78125 8.9488C4.78125 6.43487 6.92915 4.38965 9.55925 4.38965C12.1455 4.38965 14.2496 6.43487 14.2496 8.9914ZM9.51476 11.974C11.1805 11.974 12.5832 10.6105 12.5832 8.99141C12.5832 7.37228 11.1805 6.00879 9.51476 6.00879C7.8052 6.00879 6.44631 7.37228 6.44631 8.99141C6.40248 10.6105 7.8052 11.974 9.51476 11.974Z" fill="#1E1E1E"/>
<g filter="url(#filter0_d_1_608)">
<path d="M15.5224 4.17558C15.5224 4.77212 15.0402 5.28344 14.4265 5.28344C13.8129 5.28344 13.2868 4.77212 13.3307 4.17558C13.3307 3.57906 13.8129 3.11035 14.4265 3.11035C15.0402 3.11035 15.5224 3.57905 15.5224 4.17558Z" fill="#1E1E1E"/>
</g>
<defs>
<filter id="filter0_d_1_608" x="7.32812" y="0.110352" width="14.1943" height="14.1731" filterUnits="userSpaceOnUse" color-interpolation-filters="sRGB">
<feFlood flood-opacity="0" result="BackgroundImageFix"/>
<feColorMatrix in="SourceAlpha" type="matrix" values="0 0 0 0 0 0 0 0 0 0 0 0 0 0 0 0 0 0 127 0" result="hardAlpha"/>
<feOffset dy="3"/>
<feGaussianBlur stdDeviation="3"/>
<feColorMatrix type="matrix" values="0 0 0 0 0 0 0 0 0 0 0 0 0 0 0 0 0 0 0.160784 0"/>
<feBlend mode="normal" in2="BackgroundImageFix" result="effect1_dropShadow_1_608"/>
<feBlend mode="normal" in="SourceGraphic" in2="effect1_dropShadow_1_608" result="shape"/>
</filter>
</defs>
</svg>
