<svg width="20" height="18" viewBox="0 0 20 18" fill="none" xmlns="http://www.w3.org/2000/svg">
<path fill-rule="evenodd" clip-rule="evenodd" d="M19.2277 10.4901V17.1126H15.2494V10.9252C15.2494 9.37833 14.7023 8.31488 13.2602 8.31488C12.1661 8.31488 11.5197 9.03997 11.2213 9.71671C11.1218 9.9584 11.0721 10.2968 11.0721 10.6351V17.1126H7.09375C7.09375 17.1126 7.14348 6.62302 7.09375 5.55957H11.0721V7.20309C11.0721 7.20309 11.0721 7.25142 11.0224 7.25142H11.0721V7.20309C11.6191 6.42967 12.5142 5.26953 14.6526 5.26953C17.2385 5.26953 19.2277 6.9614 19.2277 10.4901ZM3.01907 0C1.67638 0 0.78125 0.8701 0.78125 1.98189C0.78125 3.09368 1.62665 3.96379 2.96934 3.96379H3.01907C4.4115 3.96379 5.25689 3.09369 5.25689 1.98189C5.20716 0.8701 4.36177 0 3.01907 0ZM0.984375 17.1126H4.913V5.55957H0.984375V17.1126Z" fill="#1E1E1E"/>
</svg>
