<svg width="188" height="49" viewBox="0 0 188 49" fill="none" xmlns="http://www.w3.org/2000/svg">
<path d="M85.168 14.016V14.976C84.464 15.296 83.696 15.936 82.864 16.896C82.032 17.824 81.28 19.248 80.608 21.168L70.864 48.048C70.544 48.016 70.192 48 69.808 48C69.456 47.968 69.104 47.952 68.752 47.952C68.4 47.952 68.032 47.968 67.648 48C67.296 48 66.96 48.016 66.64 48.048L54.256 18.048C53.808 16.896 53.312 16.112 52.768 15.696C52.256 15.248 51.776 15.008 51.328 14.976V14.016C52.384 14.048 53.616 14.08 55.024 14.112C56.464 14.144 57.904 14.16 59.344 14.16C60.912 14.16 62.368 14.144 63.712 14.112C65.088 14.08 66.192 14.048 67.024 14.016V14.976C66 15.008 65.2 15.12 64.624 15.312C64.08 15.504 63.76 15.888 63.664 16.464C63.6 17.008 63.792 17.856 64.24 19.008L72.928 40.752L71.872 42.096L77.92 25.488C78.848 22.896 79.328 20.848 79.36 19.344C79.392 17.808 79.056 16.704 78.352 16.032C77.648 15.36 76.656 15.008 75.376 14.976V14.016C76.528 14.048 77.568 14.08 78.496 14.112C79.456 14.144 80.464 14.16 81.52 14.16C82.192 14.16 82.848 14.144 83.488 14.112C84.128 14.08 84.688 14.048 85.168 14.016ZM88.6008 48.336C87.1288 48.336 85.9128 48.064 84.9528 47.52C83.9928 46.944 83.2888 46.192 82.8408 45.264C82.3928 44.336 82.1688 43.344 82.1688 42.288C82.1688 40.944 82.4728 39.84 83.0808 38.976C83.7208 38.112 84.5368 37.424 85.5288 36.912C86.5208 36.368 87.5608 35.92 88.6488 35.568C89.7368 35.216 90.7768 34.88 91.7688 34.56C92.7608 34.208 93.5608 33.808 94.1688 33.36C94.7768 32.88 95.0807 32.272 95.0807 31.536V27.552C95.0807 26.848 94.9688 26.192 94.7448 25.584C94.5528 24.944 94.1848 24.432 93.6407 24.048C93.1288 23.632 92.4088 23.424 91.4808 23.424C90.9048 23.424 90.3448 23.504 89.8008 23.664C89.2568 23.824 88.7768 24.08 88.3608 24.432C89.3848 24.784 90.1368 25.312 90.6168 26.016C91.1288 26.72 91.3848 27.504 91.3848 28.368C91.3848 29.552 90.9688 30.496 90.1368 31.2C89.3368 31.872 88.3768 32.208 87.2568 32.208C86.0408 32.208 85.0968 31.824 84.4248 31.056C83.7848 30.288 83.4648 29.36 83.4648 28.272C83.4648 27.312 83.7048 26.512 84.1848 25.872C84.6648 25.2 85.3688 24.592 86.2968 24.048C87.2248 23.504 88.3448 23.104 89.6568 22.848C90.9688 22.592 92.3608 22.464 93.8328 22.464C95.3368 22.464 96.7128 22.624 97.9608 22.944C99.2408 23.232 100.329 23.824 101.225 24.72C101.929 25.456 102.377 26.352 102.569 27.408C102.761 28.464 102.857 29.808 102.857 31.44V44.4C102.857 45.2 102.921 45.76 103.049 46.08C103.209 46.368 103.449 46.512 103.769 46.512C104.057 46.512 104.329 46.432 104.585 46.272C104.841 46.112 105.097 45.936 105.353 45.744L105.881 46.56C105.177 47.136 104.345 47.584 103.385 47.904C102.425 48.192 101.385 48.336 100.265 48.336C98.9848 48.336 97.9768 48.176 97.2408 47.856C96.5368 47.504 96.0248 47.04 95.7048 46.464C95.4168 45.888 95.2568 45.248 95.2248 44.544C94.5208 45.696 93.6408 46.624 92.5848 47.328C91.5288 48 90.2008 48.336 88.6008 48.336ZM92.5848 44.88C93.0968 44.88 93.5448 44.784 93.9288 44.592C94.3448 44.368 94.7288 44 95.0807 43.488V33.504C94.8248 33.952 94.4728 34.384 94.0248 34.8C93.6088 35.184 93.1608 35.584 92.6808 36C92.2008 36.384 91.7368 36.816 91.2888 37.296C90.8728 37.776 90.5208 38.352 90.2328 39.024C89.9768 39.664 89.8488 40.448 89.8488 41.376C89.8488 42.624 90.1048 43.52 90.6168 44.064C91.1288 44.608 91.7848 44.88 92.5848 44.88ZM125.629 22.464C127.037 22.464 128.157 22.64 128.989 22.992C129.853 23.344 130.509 23.792 130.957 24.336C131.469 24.944 131.837 25.728 132.061 26.688C132.317 27.648 132.445 28.944 132.445 30.576V43.536C132.445 44.88 132.653 45.792 133.069 46.272C133.517 46.752 134.269 46.992 135.325 46.992V48C134.685 47.968 133.725 47.936 132.445 47.904C131.197 47.84 129.981 47.808 128.797 47.808C127.485 47.808 126.221 47.84 125.005 47.904C123.789 47.936 122.877 47.968 122.269 48V46.992C123.165 46.992 123.789 46.752 124.141 46.272C124.493 45.792 124.669 44.88 124.669 43.536V28.272C124.669 27.536 124.589 26.912 124.429 26.4C124.269 25.856 123.997 25.456 123.613 25.2C123.229 24.912 122.685 24.768 121.981 24.768C121.245 24.768 120.557 24.96 119.917 25.344C119.309 25.728 118.813 26.272 118.429 26.976C118.077 27.648 117.901 28.416 117.901 29.28V43.536C117.901 44.88 118.077 45.792 118.429 46.272C118.781 46.752 119.405 46.992 120.301 46.992V48C119.693 47.968 118.813 47.936 117.661 47.904C116.509 47.84 115.341 47.808 114.157 47.808C112.845 47.808 111.533 47.84 110.221 47.904C108.909 47.936 107.917 47.968 107.245 48V46.992C108.301 46.992 109.037 46.752 109.453 46.272C109.901 45.792 110.125 44.88 110.125 43.536V28.368C110.125 26.928 109.917 25.872 109.501 25.2C109.085 24.496 108.333 24.144 107.245 24.144V23.136C108.269 23.232 109.261 23.28 110.221 23.28C111.661 23.28 113.021 23.232 114.301 23.136C115.613 23.008 116.813 22.832 117.901 22.608V26.496C118.669 25.024 119.709 23.984 121.021 23.376C122.365 22.768 123.901 22.464 125.629 22.464ZM161.539 22.608V42.768C161.539 44.208 161.747 45.28 162.163 45.984C162.611 46.656 163.363 46.992 164.419 46.992V48C163.427 47.904 162.435 47.856 161.443 47.856C159.971 47.856 158.595 47.904 157.315 48C156.067 48.096 154.883 48.272 153.763 48.528V44.64C152.995 46.08 151.939 47.12 150.595 47.76C149.283 48.368 147.779 48.672 146.083 48.672C144.675 48.672 143.539 48.496 142.675 48.144C141.843 47.792 141.203 47.328 140.755 46.752C140.243 46.176 139.875 45.408 139.651 44.448C139.427 43.456 139.315 42.16 139.315 40.56V28.368C139.315 26.928 139.107 25.872 138.691 25.2C138.275 24.496 137.523 24.144 136.435 24.144V23.136C137.459 23.232 138.451 23.28 139.411 23.28C140.883 23.28 142.259 23.232 143.539 23.136C144.819 23.008 146.003 22.832 147.091 22.608V42.864C147.091 43.6 147.171 44.224 147.331 44.736C147.491 45.248 147.763 45.648 148.147 45.936C148.531 46.224 149.043 46.368 149.683 46.368C150.419 46.368 151.091 46.176 151.699 45.792C152.307 45.408 152.803 44.88 153.187 44.208C153.571 43.504 153.763 42.72 153.763 41.856V28.368C153.763 26.928 153.555 25.872 153.139 25.2C152.723 24.496 151.971 24.144 150.883 24.144V23.136C151.907 23.232 152.899 23.28 153.859 23.28C155.331 23.28 156.707 23.232 157.987 23.136C159.267 23.008 160.451 22.832 161.539 22.608ZM176.192 22.464C177.6 22.464 178.816 22.624 179.84 22.944C180.864 23.264 181.616 23.568 182.096 23.856C183.216 24.56 183.888 24.112 184.112 22.512H185.12C185.056 23.44 185.008 24.56 184.976 25.872C184.944 27.152 184.928 28.88 184.928 31.056H183.92C183.792 29.872 183.504 28.704 183.056 27.552C182.64 26.4 182.016 25.456 181.184 24.72C180.352 23.952 179.264 23.568 177.92 23.568C177.056 23.568 176.32 23.824 175.712 24.336C175.136 24.848 174.848 25.552 174.848 26.448C174.848 27.408 175.136 28.256 175.712 28.992C176.288 29.728 177.024 30.432 177.92 31.104C178.848 31.776 179.776 32.496 180.704 33.264C181.728 34.032 182.64 34.816 183.44 35.616C184.272 36.384 184.928 37.232 185.408 38.16C185.92 39.056 186.176 40.144 186.176 41.424C186.176 42.864 185.744 44.128 184.88 45.216C184.016 46.304 182.88 47.152 181.472 47.76C180.064 48.368 178.496 48.672 176.768 48.672C175.712 48.672 174.784 48.56 173.984 48.336C173.216 48.144 172.576 47.888 172.064 47.568C171.584 47.344 171.152 47.152 170.768 46.992C170.416 46.832 170.064 46.72 169.712 46.656C169.392 46.624 169.12 46.768 168.896 47.088C168.672 47.408 168.496 47.824 168.368 48.336H167.36C167.424 47.312 167.472 46.064 167.504 44.592C167.536 43.12 167.552 41.168 167.552 38.736H168.56C168.752 40.464 169.104 41.984 169.616 43.296C170.16 44.608 170.88 45.648 171.776 46.416C172.672 47.152 173.728 47.52 174.944 47.52C175.488 47.52 175.984 47.424 176.432 47.232C176.912 47.008 177.296 46.672 177.584 46.224C177.904 45.776 178.064 45.2 178.064 44.496C178.064 43.088 177.616 41.92 176.72 40.992C175.824 40.032 174.72 38.992 173.408 37.872C172.384 37.008 171.424 36.16 170.528 35.328C169.664 34.496 168.944 33.584 168.368 32.592C167.824 31.6 167.552 30.48 167.552 29.232C167.552 27.792 167.952 26.576 168.752 25.584C169.584 24.56 170.656 23.792 171.968 23.28C173.28 22.736 174.688 22.464 176.192 22.464Z" fill="#1E1E1E"/>
<path d="M0 0.793388V0H27.9669V0.793388C16.3835 0 24.7273 19.2397 30.3471 28.9587L23.0083 48C13.3289 11.5041 3.63636 1.32231 0 0.793388Z" fill="#F4C44C"/>
<path d="M38 8.95C38 12.2361 35.3137 14.9 32 14.9C28.6863 14.9 26 12.2361 26 8.95C26 5.66391 28.6863 3 32 3C35.3137 3 38 5.66391 38 8.95Z" fill="#F4C44C"/>
<path d="M32.1626 24L26.3529 10.8705C30.2261 10.4777 37.9059 9.92784 37.6403 10.8705C37.3748 11.8131 33.8779 20.0163 32.1626 24Z" fill="#F4C44C"/>
</svg>
