<svg width="67" height="65" viewBox="0 0 67 65" fill="none" xmlns="http://www.w3.org/2000/svg">
<path fill-rule="evenodd" clip-rule="evenodd" d="M5.91162 34.0355C7.97262 25.6555 7.83765 17.5855 8.08465 9.08554C8.13265 7.42554 6.82864 6.04545 5.17364 5.99545C3.51764 5.94545 2.13561 7.2555 2.08661 8.91549C1.85261 16.9755 2.04163 24.6454 0.0856304 32.6054C-0.310369 34.2154 0.674652 35.8454 2.28265 36.2354C3.88965 36.6354 5.51662 35.6455 5.91162 34.0355Z" fill="#649969"/>
<path fill-rule="evenodd" clip-rule="evenodd" d="M23.4234 50.2749C37.4054 37.4949 50.5794 21.0549 59.7874 4.45493C60.5904 3.00493 60.0674 1.17485 58.6194 0.374855C57.1714 -0.425144 55.3434 0.0948982 54.5404 1.5449C45.6364 17.5949 32.8954 33.4949 19.3754 45.8449C18.1534 46.9649 18.0684 48.8649 19.1854 50.0849C20.3024 51.3049 22.2014 51.3949 23.4234 50.2749Z" fill="#649969"/>
<path fill-rule="evenodd" clip-rule="evenodd" d="M26.9647 64.235C39.7527 66.345 52.9337 62.7451 64.5617 57.6551C66.0787 56.9851 66.7707 55.2151 66.1077 53.7051C65.4437 52.1851 63.6727 51.4951 62.1557 52.1551C51.5657 56.7951 39.5887 60.2351 27.9417 58.3151C26.3077 58.0451 24.7627 59.1551 24.4937 60.7851C24.2237 62.4151 25.3317 63.965 26.9647 64.235Z" fill="#649969"/>
</svg>
