<svg width="46" height="45" viewBox="0 0 46 45" fill="none" xmlns="http://www.w3.org/2000/svg">
<path fill-rule="evenodd" clip-rule="evenodd" d="M4.06725 23.4093C5.48476 17.6457 5.39193 12.0953 5.56182 6.2492C5.59483 5.10748 4.69796 4.15829 3.55968 4.1239C2.42072 4.08951 1.47018 4.99053 1.43648 6.13224C1.27554 11.6757 1.40555 16.951 0.0602522 22.4257C-0.212109 23.533 0.465369 24.6541 1.57132 24.9223C2.67658 25.1975 3.79557 24.5166 4.06725 23.4093Z" fill="#A5B0E4"/>
<path fill-rule="evenodd" clip-rule="evenodd" d="M16.1133 34.5788C25.7299 25.789 34.7907 14.4819 41.1237 3.06476C41.676 2.06748 41.3163 0.808792 40.3204 0.258568C39.3245 -0.291656 38.0672 0.066021 37.515 1.0633C31.391 12.1022 22.628 23.0379 13.3292 31.532C12.4887 32.3023 12.4303 33.609 13.1985 34.4481C13.9668 35.2872 15.2729 35.3491 16.1133 34.5788Z" fill="#A5B0E4"/>
<path fill-rule="evenodd" clip-rule="evenodd" d="M18.5458 44.1799C27.3411 45.6311 36.4067 43.1551 44.4042 39.6543C45.4476 39.1935 45.9235 37.9761 45.4675 36.9376C45.0108 35.8922 43.7928 35.4176 42.7494 35.8715C35.4658 39.0628 27.2283 41.4288 19.2177 40.1083C18.0939 39.9226 17.0313 40.686 16.8463 41.807C16.6606 42.9281 17.4226 43.9942 18.5458 44.1799Z" fill="#A5B0E4"/>
</svg>
