<svg width="87" height="93" viewBox="0 0 87 93" fill="none" xmlns="http://www.w3.org/2000/svg">
<path fill-rule="evenodd" clip-rule="evenodd" d="M34.0242 18.6177C33.771 17.1155 33.5803 15.6304 33.4571 14.1451C33.2714 11.9172 33.3862 9.67221 33.3204 7.44428C33.2917 6.49909 33.1786 4.0349 33.2242 3.68045C33.6377 0.591726 36.1306 0.119076 36.8597 0.034685C37.2125 -0.0159499 40.8346 -0.420848 41.616 3.59618C42.5747 8.50776 42.8819 13.453 42.5427 18.2971C43.3343 22.4154 44.6879 26.5167 46.4753 30.23C53.5878 44.9985 67.1411 46.4331 81.8252 46.2981C84.0835 46.2644 85.9587 48.0366 86.0769 50.2814C86.195 52.5431 84.5139 54.5009 82.2658 54.7035C74.0578 55.4967 59.4952 62.0794 54.4604 68.932C53.4072 70.3666 52.7945 73.8267 51.9844 77.2192C50.8535 81.9283 49.5083 86.5866 48.0011 88.5445C47.7749 88.8483 45.0254 91.954 44.2051 92.4097C42.2338 93.4899 40.6557 92.8653 39.7595 92.2914C38.8632 91.7176 37.8488 90.5867 37.4437 88.7132C37.0201 86.7554 37.3779 82.7383 37.3121 81.8775C37.0724 78.755 36.448 72.6282 35.1737 67.3622C34.4867 64.5266 33.7542 61.9105 32.5423 60.6109C28.0561 55.8006 20.8828 56.5095 14.842 57.3028C14.1483 57.3872 13.4547 57.4885 12.7626 57.5729C10.3035 58.2987 7.69235 58.8387 4.93275 59.1594C0.765501 59.6488 0.0802891 55.8175 0.0431568 55.5643C-0.0344833 55.0073 -0.323132 52.1381 2.81792 50.9903C3.16055 50.8722 5.68894 50.3151 6.66281 50.0957C8.01983 49.7919 9.392 49.5557 10.7693 49.3363C24.996 44.9142 32.7229 32.4916 34.0242 18.6177ZM38.9071 33.9602C44.2778 45.0661 52.4283 50.4333 62.0894 52.8638H62.0877C56.0554 56.02 50.5683 59.9697 47.6601 63.936C46.5563 65.4382 45.5436 68.4593 44.6305 71.8519C44.136 68.6956 43.4676 65.3367 42.5849 62.4674C41.5806 59.1931 40.2286 56.4758 38.7197 54.8555C35.8065 51.733 32.1507 49.9945 28.2197 49.1338C32.9254 44.9648 36.4935 39.7663 38.9071 33.9602Z" fill="#263755"/>
</svg>
