<svg width="695" height="593" viewBox="0 0 695 593" fill="none" xmlns="http://www.w3.org/2000/svg">
<path opacity="0.14" d="M6.08218 3C6.08218 44.6046 -3.69671 60.7614 11.582 100C14.9229 108.58 27.0346 139.042 31.5822 147C39.8854 161.531 45.3381 175.083 56.0822 188C69.5822 208.167 80.7985 218.939 93.0822 231.222C106.272 244.412 123.541 256.453 139.86 265.778C156.003 275.002 172.149 283.696 189.971 289.444C196.872 291.671 204.188 293.142 211.416 293.778C220.391 294.567 229.827 295.51 238.582 293.778C250.089 291.502 266.658 278.822 271.582 267.333C284.177 237.945 253.066 204.063 222.971 208.167C209.477 210.007 197.024 221.043 188.916 231.222C178.508 244.287 174.776 260.732 174.193 277.056C173.449 297.893 175.603 317.73 182.36 337.611C191.124 363.399 200.971 379.461 215.082 402.5C247.732 455.806 305.283 499.024 360.082 525C417.805 552.362 480.273 569.869 543.027 583.278C568.546 588.731 595.215 591.676 621.193 589.944C644.665 588.38 669.314 587.692 692.082 582" stroke="url(#paint0_linear_1_403)" stroke-width="5" stroke-linecap="round"/>
<defs>
<linearGradient id="paint0_linear_1_403" x1="40.5" y1="3" x2="692" y2="602" gradientUnits="userSpaceOnUse">
<stop stop-color="white"/>
<stop offset="1" stop-color="white" stop-opacity="0"/>
</linearGradient>
</defs>
</svg>
